<?xml version="1.0" standalone="no"?>
<!DOCTYPE svg PUBLIC "-//W3C//DTD SVG 1.1//EN" "http://www.w3.org/Graphics/SVG/1.1/DTD/svg11.dtd" >
<svg xmlns="http://www.w3.org/2000/svg">
<metadata>Generated by IcoMoon</metadata>
<defs>
<font id="icomoon" horiz-adv-x="512">
<font-face units-per-em="512" ascent="480" descent="-32" />
<missing-glyph horiz-adv-x="512" />
<glyph unicode="&#x20;" d="" horiz-adv-x="256" />
<glyph unicode="&#xe600;" d="M221.974 479.993c-0.665-0.058-1.316-0.269-1.889-0.612l-217.861-125.77c-1.347-0.778-2.228-2.307-2.223-3.863v-251.541c0-1.556 0.875-3.084 2.223-3.863l217.861-125.771c1.338-0.766 3.081-0.766 4.418 0l217.889 125.77c1.337 0.785 2.205 2.312 2.195 3.863v251.541c0.010 1.55-0.858 3.077-2.195 3.863l-217.889 125.77c-0.757 0.448-1.65 0.664-2.529 0.612zM222.308 470.406l213.387-123.214v-246.428l-213.387-123.214-213.415 123.214v246.428l213.415 123.214zM222.308 460.151l-204.523-118.101v-236.146l204.523-118.101 204.523 118.101v236.146l-204.523 118.101zM222.308 449.425l11.921-6.892c-4.509 2.148-9.089 4.102-13.727 5.836l1.806 1.056zM214.387 444.868c7.551-3.063 14.845-7.435 22.453-9.726 10.513-0.807 31.955-26.166 11.838-12.394-11.526 9.687-26.030 13.517-39.738 18.952l5.447 3.168zM201.049 437.171c2.6-2.339 5.67-5.584 11.726-3.363 20.215-5.345 37.673-17.272 54.382-29.4 10.509-17.918 13.039-38.303 11.81-58.578h-6.113c0.673 7.81 0.904 15.683 0.806 23.704-3.132 19.502-13.106 39.64-32.707 47.212-15.302 9.572-33.104 14.637-50.936 14.033l11.032 6.391zM248.262 434.447l12.7-7.336c11.483-11.044 20.757-24.278 26.454-39.404 4.903-13.207 4.38-27.91 4.168-41.877h-6.336c0.255 2.286 0.503 4.577 0.75 6.863-0.896 18.974-2.183 40.028-15.867 54.716-4.841 11.041-12.46 20.143-21.869 27.038zM198.52 424.582c21.102 0.111 41.385-10.644 57.049-24.231 11.264-15.961 13.869-35.582 11.532-54.521h-6.447c0.139 1.56 0.209 3.147 0.166 4.752 1.015 18.010 1.944 39.005-13.394 51.826-15.309 11.262-36.32 20.076-55.327 15.978-12.55-2.917-12.659 7.866-0.139 5.808 2.196 0.253 4.375 0.377 6.558 0.389zM173.316 420.525c0.988-0.014 1.949-0.082 2.918-0.194-5.952-3.098-12.91-5.857-19.924-9.004l15.895 9.17c0.368 0.008 0.746 0.033 1.112 0.028zM276.995 417.858l10.865-6.28c11.885-19.521 18.152-42.844 16.951-65.748h-6.392c0.058 9.94-0.505 19.865-1.918 29.733-3.204 15.337-9.945 29.943-19.507 42.294zM195.658 413.995c7.216 0.11 14.389-0.565 21.369-2.057 15.941-5.642 34.597-13.84 37.347-32.818 2.631-8.7 3.1-28.060-3.224-33.29h-3.251c1.131 12.628-2.831 26.785-6.169 36.708 4.934-4.697 11.156-16.45 6.947-1.584-4.661 13.579-18.209 21.844-31.734 25.315-13.702 5.425-29.677 2.576-43.794-0.667-19.184-1.25-34.552-18.433-46.379-33.068-5.033-2.118-15.96-28.828-18.451-14.144 11.852 16.182 23.803 33.202 41.516 44.045 13.953 7.313 29.947 11.319 45.823 11.56zM297.836 405.825l6.642-3.835c7.592-17.766 13.63-36.602 12.56-56.161h-6.030c-0.17 8.003-0.639 15.987-1.473 23.926-3.83 11.872-6.23 24.739-11.699 36.070zM196.992 403.685c10.031 0.007 20.22-2.397 28.956-6.141 14.672-9.673 12.312-29.188 16.368-44.156-0.192-2.541-0.495-5.061-0.889-7.559h-6.363c0.57 3.040 0.962 6.125 1.139 9.253-2.54 14.617-1.702 40.114-22.008 40.599-12.337 5.381-37.826-2.749-42.239 1.611 7.458 4.49 16.186 6.385 25.037 6.392zM134.44 398.711c-2.542-2.067-4.906-4.341-7.002-6.892-12.073-12.736-22.17-25.969-30.567-41.627-0.806-1.44-1.606-2.906-2.39-4.363h-6.169c1.814 3.37 3.692 6.668 5.585 9.892 8.224 11.88 16.143 24.021 25.927 34.541 0.009 0.010 0.019 0.019 0.028 0.028l14.589 8.42zM312.314 397.461l5.086-2.918c1.873-7.279 3.506-14.197 6.947-15.062 4.733 23.776 6.919-20.512 6.725-28.122 0.64-1.617 0.991-3.535 1.111-5.53h-7.753c1.512 15.59-3.119 30.298-9.949 44.517-0.635 2.411-1.363 4.779-2.168 7.114zM181.403 394.959c1.371-0.214-1.012-10.745-2.139-2.89 1.084 2.184 1.756 2.95 2.139 2.89zM163.173 394.154c4.069 0.138 4.958-1.719-3.835-6.030-13.23-7.756-25.166-19.57-33.819-31.874 6.84-15.361 19.107 26.471 25.51 12.31-6.966-6.684-14.996-15.872-22.175-22.731h-12.255c6.71 14.786 16.405 27.915 28.872 38.848 1.983 5.817 12.47 9.298 17.701 9.476zM209.747 391.153c9.96 0.346 24.666-16.115 6.475-7.309-2.432 1.261-13.010 2.317-8.392 7.002 0.611 0.185 1.254 0.283 1.917 0.305zM198.326 390.875c2.838-0.103 3.726-1.49 0.389-4.613-8.099-1.651-15.033-7.279-23.37-7.864 1.036 6.798 16.739 12.704 22.981 12.477zM172.788 389.013c1.237 0.023 0.542-1.627-3.835-6.141-2.412-1.396-12.453-11.428-13.283-5.863 2.374 3.762 14.396 11.952 17.118 12.005zM335.823 383.9l5.613-3.251c2.663-11.411 2.945-23.121 3.307-34.819h-5.724c0.228 7.637-0.096 15.257-1.918 22.842-0.043 5.199-0.476 10.269-1.279 15.228zM105.79 382.177c-7.022-9.57-13.483-19.668-21.314-28.428-1.451-2.612-2.91-5.252-4.307-7.919h-7.002c0.058 0.135 0.108 0.282 0.166 0.417 6.323 11.266 14.826 20.586 22.87 30.373l9.587 5.558zM204.050 380.982c10.869 0.096 21.907-4.136 25.621-14.422 0.635-7.056 0.063-13.954-1.25-20.73h-5.53c2.548 12.813 2.275 26.119-12.088 29.372-21.069 5.356-35.31-14.981-47.99-28.205-0.109-0.379-0.258-0.773-0.417-1.167h-8.726c10.834 11.254 21.056 23.506 34.513 31.679 4.511 2.187 10.173 3.423 15.867 3.474zM351.607 374.786l2.139-1.251c5.964-7.566 6-17.514 5.113-27.705h-7.475c-0.312 10.62-0.351 20.772 0.223 28.955zM164.035 369.644c1.062 0.022 0-2.143-5.030-8.003-4.585-5.070-9.487-10.314-14.061-15.812h-7.753c2.665 2.715 5.464 5.315 8.309 7.808 3.553 5.31 16.198 15.957 18.535 16.006zM204.3 369.644c6.315 0.242 11.742-2.918 14.117-11.865 0.287-4.15-0.131-8.111-0.972-11.949h-5.418c2.437 12.114-0.728 24.392-16.256 17.701-7.681-4.383-13.012-10.824-17.757-17.701h-5.946c1.388 1.92 2.468 3.715 2.946 5.252 5.716 8.294 18.763 18.159 29.289 18.563zM80.753 367.727c-0.093-0.257-0.157-0.498-0.222-0.75-4.786-2.142-14.312-29.468-17.117-13.088 0.893 1.938 1.922 3.779 3.029 5.558l14.311 8.281zM365.918 366.532l6.363-3.668c0.301-5.685 0.489-11.363 0.695-17.034h-6.058c0.114 6.718-0.042 13.43-1.111 20.119 0.043 0.193 0.072 0.392 0.111 0.584zM198.91 359.418c5.861-1.010 0.447-7.363-4.613-13.589h-8.003c3.859 4.862 8.063 9.435 12.616 13.589zM381.674 357.418l5.752-3.307c0.313-2.768 0.662-5.544 1.084-8.281h-6.363c0.014 3.859-0.17 7.73-0.473 11.588zM56.55 353.75c-1.464-2.639-2.842-5.279-4.169-7.92h-1.445l-0.166 0.139-1.056 3.668c0.013 0.054 0.016 0.113 0.028 0.166l6.808 3.946zM206.19 352.305c1.533 0.128 2.154-1.877-0.055-6.474h-5.53c1.474 3.988 4.016 6.343 5.585 6.474zM109.014 350.832c1.529-0.119 1.983-2.319 1.417-5.002h-7.586c2.846 3.741 4.885 5.102 6.169 5.002zM398.791 347.525l2.974-1.695h-2.807l-0.166 1.695zM66.109 346.942c0.391 0.106 0.576-0.481 0.584-1.112h-1.528c0.383 0.715 0.709 1.048 0.945 1.112zM26.677 336.938h391.261v-225.92h-391.261v225.92zM35.569 328.045v-208.135h248.567v90.173c-7.673 0-13.894 6.221-13.894 13.894s6.221 13.894 13.894 13.894v90.173h-248.567zM284.137 237.872v-27.788c7.673 0 13.894 6.221 13.894 13.894s-6.221 13.894-13.894 13.894zM244.899 318.236h8.17v-17.312c0-14.157 0.516-17.284 2.751-17.284 1.502 0 2.724-0.829 2.724-1.862 0-1.032-1.221-2.341-2.724-2.918-2.338-0.897-2.751-8.43-2.751-52.493 0-43.52 0.442-51.827 2.751-53.743 4.933-4.094 2.877-5.474-8.197-5.474-8.494 0-10.921 0.599-10.921 2.724 0 1.502 0.805 2.751 1.806 2.751 1.172 0 1.834 18.793 1.834 52.77 0 33.977-0.662 52.798-1.834 52.798-1.001 0-1.806 1.221-1.806 2.723 0 1.502 0.805 2.724 1.806 2.724 1.060 0 1.834 6.027 1.834 14.45 0 7.95-0.833 14.971-1.834 15.59-4.124 2.548-1.3 4.558 6.392 4.558zM363.973 316.875c-8.801 0-11.974-2.182-6.363-4.335 2.112-0.81 2.724-4.292 2.724-15.534v-14.561l-12.283-0.556-12.283-0.528-0.528-55.493c-0.265-30.524-0.067-56.538 0.417-57.8 0.635-1.654 6.508-2.279 20.981-2.279 16.635 0 20.091 0.462 20.091 2.724 0 1.502-0.833 2.724-1.834 2.724-1.183 0-0.651 25.522-1.806 72.834v72.805h-9.115zM316.76 311.011c-3.788-0.183-4.727-1.161-5.168-4.279-0.333-2.355-0.118-6.292 0.5-8.754 0.945-3.765 2.079-4.394 7.002-3.918 5.639 0.546 5.863 0.861 5.863 8.754 0 8.148-0.026 8.197-6.363 8.197-0.663 0-1.293 0.025-1.834 0zM316.76 282.805c-8.478 0-11.543-1.923-7.281-4.558 1.146-0.708 1.834-20.631 1.834-53.715 0-33.084-0.688-52.98-1.834-53.687-1.001-0.618-1.806-1.892-1.806-2.834 0-0.942 4.914-1.723 10.921-1.723 8.495 0 10.921 0.627 10.921 2.751 0 1.502-0.833 2.724-1.834 2.724-1.173 0-1.806 19.724-1.806 55.521v55.521h-9.115zM200.855 282.389c2.72 0.007 6.155-0.060 10.421-0.167l20.48-0.5 0.5-19.591 0.528-19.563h-12.755l-0.5 16.84-0.528 16.84h-10.921l-0.5-51.187c-0.415-43.901-0.088-51.501 2.279-53.465 4.962-4.118 2.95-5.474-8.142-5.474-8.494 0-10.921 0.599-10.921 2.724 0 1.502 0.805 2.751 1.806 2.751 1.171 0 1.834 18.443 1.834 51.742 0 32.549-0.69 52.202-1.834 52.909-1.001 0.618-1.806 2.332-1.806 3.807 0 1.676 1.901 2.311 10.060 2.334zM158.089 282.333c1.938-0.007 4.066-0.051 6.419-0.111l20.48-0.5v-114.683l-11.365-0.5-11.393-0.584v-15.312c0-8.402 0.833-15.748 1.834-16.368 4.498-2.78 0.943-4.558-9.114-4.558-6.006 0-10.921 0.781-10.921 1.723 0 0.942 0.833 2.216 1.834 2.834 1.163 0.719 1.806 26.67 1.806 71.889 0 45.219-0.643 71.197-1.806 71.916-4.855 3.001-1.338 4.293 12.227 4.252zM101.206 282.222h36.403l0.5-19.563 0.528-19.563h-12.755l-0.5 16.84-0.528 16.84-10.004 1.111v-47.379l11.393-0.5 11.365-0.583v-61.885l-17.395-0.5c-9.56-0.284-17.972 0.048-18.674 0.75-0.701 0.702-0.279 8.55-1.251 17.34v16.089h14.561v-14.616c0-15.425 2.269-19.416 8.253-14.45 2.264 1.878 2.693 6.76 2.278 27.094l-0.528 24.731-11.81 0.917-11.838 0.889v56.439zM162.228 277.387v-53.798c0-51.433 0.152-53.826 3.418-53.826 1.88 0 4.334 1.127 5.475 2.501 1.466 1.767 1.927 17.325 1.584 53.243l-0.445 50.741-5.030 0.584-5.002 0.556zM349.411 276.831h10.921v-105.596h-10.921v105.596zM42.849 101.681h17.090l17.090-9.892 25.621-14.784 8.559 4.918 34.179 19.757h17.090l-17.090-9.892-42.739-24.649-59.8 34.541zM77.029 101.681h51.27l-17.090-9.892-8.559-4.918-25.621 14.812zM179.569 101.681h51.269l-8.531-4.947 8.531-4.947 17.090 9.892 8.559-4.947-8.559-4.947 8.559-4.918 17.090 9.865-8.559 4.947h51.298l8.531-4.947 8.559 4.947h34.18l-8.559-4.947-8.531 4.947-8.559-4.947 17.090-9.865 8.559 4.918 8.531-4.918-8.559-4.947-8.531 4.947-8.531-4.947-8.559 4.947-8.531-4.947-8.559-4.918-8.531-4.947 8.531-4.918-8.531-4.947-8.559-4.918-8.531-4.947-8.559-4.918 8.531-4.947-8.531-4.918-8.559 4.918 8.559 4.947-8.559 4.918 8.559 4.947-8.559 4.918-17.090-9.865-8.531 4.947 17.090 9.865-8.559 4.918-17.090-9.865-8.531 4.947 8.531 4.918-8.531 4.947-8.559-4.947-8.531 4.947-17.090-9.865-8.559 4.918-8.531-4.918 8.531-4.947-42.711-24.649-17.090 9.865 25.621 14.784-8.531 4.947-8.559 4.918-8.531 4.947 8.531 4.918 8.559-4.918 8.531 4.918-8.531 4.947 17.090 9.865 8.531-4.947-8.531-4.918 8.531-4.947 8.559 4.947 8.531-4.947-8.531-4.918 8.531-4.947 17.090 9.865-8.531 4.947 8.531 4.918-8.531 4.947-8.559-4.947-17.090 9.892zM162.479 62.193l8.559-4.918 17.090 9.865-8.559 4.918-8.531 4.947-8.559-4.947 8.559-4.918-8.559-4.947zM239.397 77.005l8.531 4.918-8.531 4.947-8.559-4.947 8.559-4.918zM316.315 72.058l-8.559 4.947 8.559 4.918 8.531 4.947-25.621 14.812-34.207-19.757 8.559-4.918 8.531-4.947 8.559-4.918 8.559 4.918 8.531-4.918 8.559 4.918zM384.675 101.681h17.090l-17.118-9.892-8.531 4.947 8.559 4.947zM299.226 91.788l8.531-4.918-8.531-4.947-8.559-4.918-8.559 4.918 8.559 4.947 8.559 4.918zM119.768 67.14l8.531-4.947 8.559 4.947 8.531-4.947-8.531-4.918-8.531-4.947-17.090 9.865 8.531 4.947zM222.308 67.14l8.531-4.947 8.559-4.918 8.531-4.947 8.559-4.918 8.531-4.947 8.559-4.918 8.531-4.947-59.8-34.513-59.8 34.513 8.531 4.947 51.269 29.594zM222.308 57.275l-42.738-24.676 8.559-4.918 8.531-4.947 8.559-4.918 8.531-4.947 8.559-4.918 42.711 24.649-8.531 4.947-8.559 4.918-8.531 4.947-8.559 4.918-8.531 4.947zM222.308 47.41l8.531-4.947 8.559-4.918 8.531-4.947-25.621-14.784-8.559 4.918-8.531 4.947-8.559 4.918 25.649 14.811z" horiz-adv-x="445" />
<glyph unicode="&#xe601;" d="M256 478.99l-9.522-4.328-246.478-111.517v-278.325l256-115.846 9.486 4.328 246.514 111.517v278.325l-13.597 6.132-242.403 109.714zM256 466.294l4.724-2.128 239.734-108.488v-263.394l-6.817-3.101-237.642-107.55-4.761 2.164-239.698 108.488v263.394l244.458 110.616zM256 453.635l-12.768-5.77c14.131-1.983 28.186-4.428 42.090-7.502l-29.322 13.272zM225.632 439.894l-14.679-6.636c17.484-2.738 40.388-7.123 23.48 5.41-2.919 0.377-5.85 0.791-8.8 1.226zM258.019 436.216c-13.070-8.712 31.76-14.038 42.378-19.115 29.714-3.712 51.796-26.009 78.913-36.355 46.769-15.906 70.906-61.812 92.258-102.789 6.111-13.144 12.115-26.565 17.348-40.287v26.869c-3.421 7.979-7.362 15.719-12.19 23.047-13.281 28.654-31.913 54.168-53.811 76.785-22.322 18.755-50.625 28.287-75.74 42.847-26.367 18.435-58.673 21.823-89.156 28.998zM193.821 423.736c-1.35 0.005-2.691-0.027-4.040-0.072l-7.069-3.174c3.278-1.934 6.858-3.339 10.531-4.292 33.51-3.897 67.394-5.671 100.445-13.525 29.819-11.216 58.392-27.078 82.736-47.752h8.259c0.022 0 0.048 0 0.074 0 3.146 0 6.030-1.117 8.279-2.976-12.203 15.656-26.022 29.14-46.223 34.894-27.161 18.104-58.782 25.198-90.31 31.161-20.988-0.246-41.797 5.654-62.684 5.735zM180.585 405.847c-8.619-0.076-17.226-0.774-25.751-2.416-1.756 0.311-4.811 0.517-8.476 0.577l-23.047-10.423c40.207 1.257 80.996 8.651 120.462-2.236 23.688-9.877 49.050-21.933 71.051-36.968 1.21-0.742 2.408-1.516 3.606-2.272 2.193 1.75 5.004 2.81 8.063 2.813h5.534c-2.934 1.882-5.974 3.622-9.197 5.194-24.656 12.938-50.019 24.092-73.936 38.375-21.162 3.117-42.942 7.115-64.631 7.357-1.232 0.014-2.447 0.012-3.679 0zM266.243 399.283c12.707-16.276 42.232-16.803 59.798-30.188 7.236-4.306 14.142-9.067 20.81-14.174h14.607c-5.675 4.503-11.625 8.72-17.961 12.479-23.832 13.933-50.034 26.003-77.255 31.883zM200.422 387.562c-6.516-0.089-13.052-0.691-19.548-1.876-33.982-2.37-73.448 5.546-102.105-17.312 16.246-6.449 32.689 6.286 48.726 8.511 45.909 1.63 95.293 9.158 137.45-14.426 16.298-6.29 33.053-12.862 47.933-22.073l0.829 4.076c0.282 1.297 0.717 2.443 1.295 3.501-11.555 4.736-22.926 10.386-35.017 14.495-23.394 15.98-51.329 25.488-79.563 25.103zM422.7 378.221c3.258-2.252 6.598-4.132 9.954-5.482 14.514-22.634 34.632-41.549 46.706-65.893 3.269-6.075 6.44-12.214 9.558-18.358v17.312c-10.311 18.925-23.743 36.594-35.886 54.497-2.165 2.297-4.308 4.67-6.456 7.105l-23.876 10.82zM194.182 370.935c-30.867-3.485-64.028 1.791-92.763-12.443 12.698-11.533 33.955 10.143 49.195 0.469 40.898 6.727 84.274 4.374 121.652-14.932 12.456-7.152 24.837-14.911 36.68-23.407l1.983 9.955c-34.894 22.329-74.954 38.58-116.748 40.358zM66.434 367.87l-24.201-10.964c-0.009-0.348 0.012-0.716 0.036-1.082 2.019-12.553 14.402 1.512 19.62 3.39 15.683 3.316 12.445 7.355 4.544 8.656zM468.829 357.338c7.215-10.354 13.862-21.133 20.089-32.135v16.843c-1.795 2.933-3.63 5.818-5.518 8.692l-14.571 6.6zM85.622 355.462c-5.265-0.214-11.031-2.647-12.010-8.909 1.751-4.657 7.804-2.154 10.784-0.577 16.31 4.14 10.34 9.372 2.272 9.486-0.345 0-0.695 0.014-1.046 0zM407.299 355.138c-5.954-18 28.342-36.328 31.233-58.897 12.018-24.516 30.812-45.602 30.368-74.766 10.068-26.652 10.493-55.519 18.791-82.592 0.442-1.733 0.844-3.106 1.226-4.256v49.375c-8.608 34.835-16.13 70.666-33.867 102.177-12.784 24.921-26.859 49.907-47.752 68.959zM163.814 352.361c-24.749-1.407-49.352-6.022-72.963-13.453-21.802-9.313-49.532-13.381-67.769-29.25v-9.738c0.777 0.446 1.497 0.939 2.056 1.442 21.189 15.548 47.482 21.327 70.906 32.857 21.276 0.549 41.724 7.704 62.719 10.279 0.761 3.598 2.924 6.587 5.878 8.425zM396.443 347.528c0.801-1.639 1.269-3.567 1.269-5.604 0-0.914-0.094-1.807-0.274-2.668l-0.743-3.738c6.614-7.197 12.744-14.857 18.322-22.975 23.763-25.021-1.696 13.909-9.954 22.938-2.858 4.063-5.683 8.102-8.62 12.046zM61.349 345.255v-0.036c-0.371 0-0.778 0.016-1.19 0-9.639-0.394-29.995-6.124-32.785-15.040 9.677-8.213 18.739 7.105 28.492 7.646 11.699 5.071 11.045 7.384 5.482 7.429zM244.17 344.895c0.224-0.904 0.352-1.94 0.352-3.007 0-0.3-0.010-0.597-0.030-0.892 13.679-6.72 27.396-13.501 42.128-17.596 9.236 4.941-22.559 18.697-42.451 21.495zM171.532 341.901l-6.059-30.404h59.978l6.059 30.404h-59.978zM326.474 341.901l-10.82-54.208c-3.94 5.189-8.625 9.091-14.102 11.686-5.477 2.594-11.837 3.895-19.043 3.895-9.32 0-17.813-2.361-25.499-7.069-7.59-4.612-12.987-9.973-16.158-16.122-3.075-6.149-6.026-16.605-8.909-31.305l-18.033-89.481c-2.786-14.124-3.894-24.303-3.318-30.548 0.673-6.245 3.852-11.786 9.522-16.591 5.669-4.708 13.005-7.069 22.036-7.069 6.726 0 13.471 1.445 20.197 4.328 6.726 2.882 13.435 7.219 20.161 12.984l-2.741-13.849h58.248l46.67 233.35h-58.212zM156.709 334.111c-5.537-1.062-10.831-2.885-15.689-5.915 4.47-1.527 9.143-2.338 13.958-2.741l1.731 8.656zM243.088 333.389l-1.587-7.863c9.466-3.542 20.129-4.687 29.033-9.558 8.269-1.857-10.868 12.481-27.447 17.42zM129.478 328.196v-0.036c-38.76-0.174-71.486-22.355-106.396-37.005v-9.377c13.222 4.001 25.618 14.36 37.581 20.125 19.030 16.452 68.561 11.287 73.395 26.184-1.54 0.063-3.059 0.115-4.581 0.108zM394.243 323.327l-2.236-11.18c6.671-7.458 13.111-15.099 19.404-22.758 17.226-16.197 34.323-33.060 43.099-55.831 14.485-1.956-17.457 41.528-23.515 48.438-12.628 13.316-24.382 27.659-36.752 41.332zM242.98 318.674c-4.469 0.143 0.73-5.718 8.8-10.459 2.469 1.413 5.020 2.63 7.646 3.679-1.784 0.958-3.551 1.939-5.302 2.957-5.717 2.665-9.279 3.764-11.144 3.823zM152.85 314.744c-24.598-2.134-48.985-7.488-72.314-15.22 4.91-13.207 43.055 8.594 62.612 6.997 3.194 0.486 6.369 0.868 9.558 1.19 1.047 1.381 2.327 2.524 3.792 3.388-3.849-2.007-4.027-0.793-4.027 0.463 0 0.87 0.085 1.721 0.249 2.543l0.131 0.639zM237.173 305.907c-0.946-1.97-2.304-3.606-3.97-4.853 2.606 1.197 2.779 0.023 2.785-1.191 1.202 0.011 2.407-0.295 3.601-0.628 1.505 1.418 3.117 2.755 4.797 4.039-2.386 0.934-4.798 1.781-7.214 2.633zM163.020 299.812l-38.195-191.26h59.978l38.195 191.26h-59.978zM389.518 299.668l-2.272-11.397c17.036-21.568 28.922-44.95 34.696-71.916 16.914-36.096 10.526-77.596 26.978-113.826 22.721-9.245-12.74 41.175-0.974 55.471-8.377 28.992-12.168 59.571-26.689 86.488-5.591 21.375-18.363 38.553-31.738 55.181zM149.459 298.477c-12.828-1.205-31.794-7.016-41.477-9.377-28.984 1.367-52.036-16.795-72.097-35.562-3.434-4.429-7.867-8.342-12.803-12.010v-6.275c14.251 12.713 29.608 23.635 44.722 35.237 15.566 13.341 25.85 5.291 6.347-7.357-17.403-13.614-35.746-26.526-51.070-41.837v-12.479c15.879 16.331 33.505 30.178 50.276 45.407 18.454 24.674 46.558 31.624 74.802 37.617l1.298 6.636zM71.159 293.608c-16.113-3.548-31.45-13.731-48.077-20.305v-16.554c16.026 12.352 32.309 24.35 48.077 36.86zM146.466 283.365c-9.702-0.837-19.888-4.948-28.564-9.197-26.725-11.947-43.968-36.435-66.868-53.307-7.627-11.342-17.974-19.942-27.951-28.853v-11.072c15.347 15.721 32.459 29.278 47.572 46.851 22.97 16.761 42.797 41.882 71.989 47.464 0.808 0.079 1.516 0.119 2.236 0.18l1.587 7.935zM384.865 276.369l-2.2-11c3.257-4.341 6.579-8.615 10.135-12.696 7.833 1.743 0.865 12.652-7.935 23.696zM302.995 269.408c3.555 0 5.639-1.205 6.312-3.607 0.769-2.402 0.479-7.124-0.865-14.138l-17.709-88.471c-2.114-10.665-4.089-17.411-5.915-20.197-1.825-2.69-4.62-4.039-8.368-4.039-3.267 0-5.243 1.204-5.915 3.606-0.673 2.498-0.191 7.654 1.442 15.437l18.755 93.665c1.441 7.494 2.983 12.312 4.616 14.427 1.634 2.209 4.187 3.318 7.646 3.318zM143.22 267.172c-7.432-3.909-14.050-7.999-5.662-9.594 1.363 0.666 2.768 1.295 4.148 1.912l1.515 7.682zM429.841 261.004c-1.058-0.012-1.858-2.186-1.983-7.935 0.244-1.355 0.478-2.72 0.721-4.076 15.62-28.955 5.847 12.054 1.262 12.010zM123.131 254.332c-4.46-0.202-23.864-11.823-29.791-19.548 7.184-6.434 15.153 4.459 20.413 8.259 9.939 8.369 11.713 11.394 9.377 11.289zM380.394 254.115l-2.019-10.207c0.036-0.072 0.072-0.144 0.108-0.216 17.767-23.358 31.19-48.654 31.197-78.733 14.471-25.795 17.307 7.867 8.296 21.64-2.197 12.279-20.293 82.642-20.053 42.919-6.292 0.274-11.575 12.585-17.529 24.597zM138.784 244.882c-22.73-5.822-44.671-27.104-59.077-46.021-20.086-24.71-31.468-54.392-43.857-83.458-2.090-6.139-4.133-12.385-6.023-18.755l8.259-3.715c1.375 4.89 2.828 9.743 4.364 14.571 8.317 27.901 20.166 52.473 35.345 76.894 12.921 24.487 39.124 39.91 59.87 54.965l1.118 5.518zM442.933 232.692c3.643-29.096 15.51-73.259 24.525-107.478 11.186-30.535 8.608 17.35 2.2 24.453-7.598 27.465-0.52 66.358-26.726 83.025zM86.704 232.079c-1.537-0.133-3.326-1.793-5.157-6.131 12.699-12.537 10.647 6.607 5.157 6.131zM375.921 231.682l-2.921-14.643c1.421-2.701 2.842-5.379 4.328-8.007 15.216-47.968 22.42-98.76 23.804-149.027l8.909 4.003c-6.856 34.604-0.094 71.572-12.226 105.242-2.668 22.404-11.012 43.072-21.892 62.431zM134.888 225.442c-8.722-4.81-16.994-10.382-24.633-16.627-24.856-23.241-38.428-54.481-52.116-84.359 8.839-22.747 17.542 23.687 24.922 28.745 11.909 23.038 27.259 49.836 49.916 62.719l1.911 9.522zM75.415 216.029c-8.155-0.139-28.058-24.563-28.312-34.696-6.309-17.57-15.453-33.368-24.020-49.483v-19.656c18.499 33.221 27.712 72.555 55.722 99.579-0.245 3.026-1.508 4.288-3.391 4.256zM369.753 200.882l-4.652-23.263c9.618-41.839 11.745-85.474 12.515-128.252l10.82 4.869c0.122 32.664-5.001 65.272-9.089 97.668-0.801 16.668-4.131 33.178-9.594 48.978zM129.478 198.248c-8.462-3.529-19.368-11.113-20.413-19.368-18.879-24.922-30.88-53.253-35.814-83.674 4.715-3.442 15.378-5.245 12.948 4.111 10.436 11.744 22.465 33.313 33.506 50.168l1.551 7.682c-13.45 11.684-19.565-51.807-34.84-30.476 9.267 21.302 23.379 42.849 40.611 59.329l2.452 12.226zM31.811 178.123c-2.701-4.519-5.665-8.905-8.728-13.272v-11.361c8.315 11.835 16.457 22.599 8.728 24.634zM416.82 149.018c-2.954-13.447 4.384-50.572 1.046-73.359 1.034-3.121 1.928-5.338 2.741-6.853l4.869 2.2c0.793 4.841 0.706 12.098 0.108 15.87-6.173 26.744 11.281 4.717 14.643-7.466-2.221 19.545-8.822 51.444-23.407 69.608zM359.33 148.657l-8.44-42.161c1.667-22.412 3.103-44.851 4.256-67.3l9.522 4.292c-0.938 7.853-1.582 15.394 0.469 18.538-3.254 28.7-1.509 57.714-5.807 86.632zM114.258 122.148c-11.419-15.993-21.094-33.43-23.588-53.018l13.308-6.023c0.046 0.495 0.040 0.933-0.036 1.334 0.614 12.611 4.457 25.096 9.846 37.257-1.241 1.957-1.978 4.339-1.978 6.894 0 0.892 0.090 1.762 0.26 2.603l2.186 10.953zM62.251 112.555c-0.159 0.012-0.336-0.015-0.505-0.036-2.117-0.265-4.987-3.14-8.367-10.243-1.332-4.776-2.736-9.565-4.148-14.39l7.827-3.534c0.559 1.478 1.169 2.911 1.876 4.292 8.416 7.724 8.253 23.549 3.318 23.912zM203.090 112.338c-10.463-26.503-12.792-56.144-15.617-84.216 0.011-0.94 0.041-1.874 0.072-2.813l11.361-5.158c-0.109 12.31 1.78 24.19 6.167 34.624-10.118 12.276 3.267 32.474 6.852 47.319-0.034 0.026-0.075 0.046-0.108 0.072-1.367 0.911-2.517 2.026-3.436 3.317-0.095-0.344-3.001 3.084-5.292 6.854zM270.824 99.101c-1.119-0.546-2.221-1.137-3.354-1.623-2.385-1.022-4.808-1.89-7.25-2.633-2.219-13.544-4.32-27.125-4.617-40.755-4.625-19.981-1.88-39.75 0.758-59.582l8.981 4.039c-4.781 33.13 2.433 66.158 7.177 99.219-1.714 1.143-3.108 2.632-4.111 4.373zM220.33 96.757c-5.351-26.835-10.672-54.629-9.774-81.871l10.856-4.905c-0.838 17.923 0.22 35.949 3.174 53.595 0 10.188 1.882 20.185 4.22 30.115-2.945 0.751-5.782 1.776-8.476 3.065zM341.189 95.928c-0.956-0.252-2.054-0.397-3.185-0.397h-11.421c-2.565-22.066 2.483-44.983 3.787-67.553l11.072 5.013c-2.442 20.832 0.147 41.938-0.252 62.936zM149.857 95.567c-2.277-6.553-2.154-11.596 3.427-13.128 2.929 4.135 5.405 8.538 7.646 13.128h-11.072zM173.624 95.567c-4.077-13.385-6.904-27.036-8.44-40.538-1.218-6.21-1.907-12.44-2.128-18.647l10.387-4.688c-0.239 1.664-0.452 3.316-0.649 4.905 5.946 21.603 6.263 40.036 12.371 58.969-0.054-0.001-0.117-0.002-0.18-0.002-0.064 0-0.126 0-0.19 0.002h-11.171zM280.85 95.567c-0.726-8.235-1.349-15.999-2.38-21.099-0.927-23.147-0.848-46.622-0.288-70.113l10.315 4.688c-0.945 13.809-1.774 27.677-0.108 41.404 0.952 15.248 3.389 30.266 4.977 45.119h-12.515zM301.985 95.567c-0.385-7.899 0.034-15.817 2.2-23.804-4.103-17.933-0.959-36.779-0.036-55.651l10.856 4.905c-1.154 13.628-3.432 28.312 0.649 36.247-1.522 12.827-0.974 25.569-0.036 38.303h-13.633zM249.616 92.61c-2.483-0.315-4.969-0.505-7.466-0.505-1.132 0-2.27 0.043-3.391 0.108-4.074-19.623-4.659-39.652-5.734-60.195-2.576-8.188-1.572-17.71 0.108-27.339l9.305-4.22c-1.009 22.888 0.762 45.709 3.138 68.635 1.251 7.785 2.672 15.632 4.040 23.515zM132.436 90.987c-11.987-0.22-19.38-14.642-21.748-30.909l12.587-5.699c3.411 12.127 9.457 23.954 9.161 36.608zM75.92 84.82c-1.763-0.156-4.010-1.137-6.781-3.065-0.124-0.899-0.294-1.798-0.433-2.705l12.876-5.806c0.236 6.752-1.037 11.402-4.941 11.577-0.233 0.012-0.469 0.022-0.722 0zM146.358 76.38c-0.226 0.022-0.457-0.009-0.685-0.036-2.045-0.237-4.18-2.554-5.806-8.296 0.345-1.209 0.701-2.398 1.046-3.606 18.016-12.166 12.451 11.236 5.446 11.938zM148.197 56.724c-4.229-0.102-9.395-3.013-12.046-8.151l15.977-7.25c5.492 10.834 1.603 15.534-3.931 15.401z" />
<glyph unicode="&#xe602;" d="M512 176l-96 96v144h-64v-80l-96 96-256-256v-16h64v-160h160v96h64v-96h160v160h64z" />
<glyph unicode="&#xe603;" d="M432 480c44.182 0 80-35.817 80-80 0-18.010-5.955-34.629-16-48l-32-32-112 112 32 32c13.371 10.045 29.989 16 48 16zM32 112l-32-144 144 32 296 296-112 112-296-296zM357.789 298.211l-224-224-27.578 27.578 224 224 27.578-27.578z" />
<glyph unicode="&#xe604;" d="M0 416v-416h512v416h-512zM480 32h-448v352h448v-352zM352 304c0 26.51 21.49 48 48 48s48-21.49 48-48c0-26.51-21.49-48-48-48-26.51 0-48 21.49-48 48zM448 64h-384l96 256 128-160 64 48z" />
<glyph unicode="&#xe605;" d="M152 176c0-57.438 46.562-104 104-104s104 46.562 104 104-46.562 104-104 104-104-46.562-104-104zM480 352h-112c-8 32-16 64-48 64h-128c-32 0-40-32-48-64h-112c-17.6 0-32-14.4-32-32v-288c0-17.6 14.4-32 32-32h448c17.6 0 32 14.4 32 32v288c0 17.6-14.4 32-32 32zM256 34c-78.425 0-142 63.574-142 142 0 78.425 63.575 142 142 142 78.426 0 142-63.575 142-142 0-78.426-63.573-142-142-142zM480 256h-64v32h64v-32z" />
<glyph unicode="&#xe606;" d="M451.716 380.285l-71.432 71.431c-15.556 15.556-46.284 28.284-68.284 28.284h-240c-22 0-40-18-40-40v-432c0-22 18-40 40-40h368c22 0 40 18 40 40v304c0 22-12.728 52.729-28.284 68.285zM429.089 357.657c1.565-1.565 3.125-3.487 4.64-5.657h-81.729v81.728c2.17-1.515 4.092-3.075 5.657-4.64l71.432-71.431zM448 8c0-4.336-3.664-8-8-8h-368c-4.336 0-8 3.664-8 8v432c0 4.336 3.664 8 8 8h240c2.416 0 5.127-0.305 8-0.852v-127.148h127.148c0.547-2.873 0.852-5.583 0.852-8v-304z" />
<glyph unicode="&#xe607;" d="M160 448h-128v-128h128v128zM192 480v0-192h-192v192h192zM64 416h64v-64h-64zM480 448h-128v-128h128v128zM512 480v0-192h-192v192h192zM384 416h64v-64h-64zM160 128h-128v-128h128v128zM192 160v0-192h-192v192h192zM64 96h64v-64h-64zM224 480h32v-32h-32zM256 448h32v-32h-32zM224 416h32v-32h-32zM256 384h32v-32h-32zM224 352h32v-32h-32zM256 320h32v-32h-32zM224 288h32v-32h-32zM224 224h32v-32h-32zM256 192h32v-32h-32zM224 160h32v-32h-32zM256 128h32v-32h-32zM224 96h32v-32h-32zM256 64h32v-32h-32zM224 32h32v-32h-32zM256 0h32v-32h-32zM480 224h32v-32h-32zM32 224h32v-32h-32zM64 256h32v-32h-32zM0 256h32v-32h-32zM128 256h32v-32h-32zM160 224h32v-32h-32zM192 256h32v-32h-32zM288 224h32v-32h-32zM320 256h32v-32h-32zM352 224h32v-32h-32zM384 256h32v-32h-32zM416 224h32v-32h-32zM448 256h32v-32h-32zM480 160h32v-32h-32zM288 160h32v-32h-32zM320 192h32v-32h-32zM352 160h32v-32h-32zM416 160h32v-32h-32zM448 192h32v-32h-32zM480 96h32v-32h-32zM288 96h32v-32h-32zM320 128h32v-32h-32zM384 128h32v-32h-32zM416 96h32v-32h-32zM448 128h32v-32h-32zM480 32h32v-32h-32zM320 64h32v-32h-32zM352 32h32v-32h-32zM384 64h32v-32h-32zM416 32h32v-32h-32zM320 0h32v-32h-32zM384 0h32v-32h-32zM448 0h32v-32h-32z" />
<glyph unicode="&#xe608;" d="M64 16c0 26.51 21.49 48 48 48s48-21.49 48-48c0-26.51-21.49-48-48-48-26.51 0-48 21.49-48 48zM384 16c0 26.51 21.49 48 48 48s48-21.49 48-48c0-26.51-21.49-48-48-48-26.51 0-48 21.49-48 48zM480 224v192h-416c0 35.346-28.653 64-64 64v-32c17.645 0 32-14.355 32-32l24.037-206.027c-14.647-11.729-24.037-29.75-24.037-49.973 0-35.347 28.654-64 64-64h384v32h-384c-17.673 0-32 14.327-32 32 0 0.11 0.007 0.218 0.008 0.328l415.992 63.672z" />
<glyph unicode="&#xe609;" d="M464 416h-416c-26.4 0-48-21.6-48-48v-288c0-26.4 21.6-48 48-48h416c26.4 0 48 21.6 48 48v288c0 26.4-21.6 48-48 48zM48 384h416c8.673 0 16-7.327 16-16v-48h-448v48c0 8.673 7.327 16 16 16zM464 64h-416c-8.673 0-16 7.327-16 16v144h448v-144c0-8.673-7.327-16-16-16zM64 160h32v-64h-32zM128 160h32v-64h-32zM192 160h32v-64h-32z" />
<glyph unicode="&#xe60a;" d="M352 160c-32-32-32-64-64-64s-64 32-96 64-64 64-64 96 32 32 64 64-64 128-96 128-96-96-96-96c0-64 65.75-193.75 128-256s192-128 256-128c0 0 96 64 96 96s-96 128-128 96z" />
<glyph unicode="&#xe60b;" d="M480 352c17.673 0 32 14.327 32 32v64h-64v32h-416c-17.6 0-32-14.399-32-32v-448c0-17.6 14.398-32 32-32h416v128h32c17.673 0 32 14.327 32 32v64h-64v32h32c17.673 0 32 14.327 32 32v64h-64v32h32zM288 351.835c35.255 0 63.835-28.58 63.835-63.835s-28.58-63.835-63.835-63.835c-35.255 0-63.835 28.58-63.835 63.835s28.58 63.835 63.835 63.835zM128 0h-32v448h32v-448zM384 96h-192v32c0 35.347 28.654 64 64 64v0h64c35.348 0 64-28.653 64-64v-32z" />
<glyph unicode="&#xe60c;" d="M256 480c-141.385 0-256-114.615-256-256s114.615-256 256-256 256 114.615 256 256-114.615 256-256 256zM256 16c-114.875 0-208 93.125-208 208s93.125 208 208 208 208-93.125 208-208-93.125-208-208-208zM304 272l-144 80h-32v-32l80-144 144-80h32v32l-80 144zM256 192c-17.673 0-32 14.327-32 32s14.327 32 32 32c17.673 0 32-14.327 32-32 0-17.673-14.327-32-32-32z" />
<glyph unicode="&#xe60d;" d="M336 384l-160 64-176-64v-384l176 64 160-64 176 64v384l-176-64zM192 407.135l128-51.2v-315.069l-128 51.199v315.070zM32 361.586l128 46.545v-315.9l-128-46.544v315.899zM480 86.414l-128-46.546v315.9l128 46.545v-315.899z" />
<glyph unicode="&#xe60e;" d="M368 480h-224c-26.4 0-48-21.6-48-48v-416c0-26.4 21.6-48 48-48h224c26.4 0 48 21.6 48 48v416c0 26.4-21.6 48-48 48zM192 456h128v-16h-128v16zM256 0c-17.673 0-32 14.327-32 32s14.327 32 32 32 32-14.327 32-32-14.327-32-32-32zM384 96h-256v320h256v-320z" />
<glyph unicode="&#xe60f;" d="M448 480h-448v-512h512v448l-64 64zM256 416h64v-128h-64v128zM448 32h-384v384h32v-160h288v160h37.489l26.511-26.509v-357.491z" />
<glyph unicode="&#xe610;" d="M311.413 128.632c-11.055 1.759-11.307 32.157-11.307 32.157s32.484 32.158 39.564 75.401c19.045 0 30.809 45.973 11.761 62.148 0.795 17.027 24.48 133.662-95.431 133.662-119.911 0-96.225-116.635-95.432-133.662-19.047-16.175-7.285-62.148 11.761-62.148 7.079-43.243 39.564-75.401 39.564-75.401s-0.252-30.398-11.307-32.157c-35.61-5.666-168.586-64.317-168.586-128.632h448c0 64.315-132.976 122.966-168.587 128.632z" />
<glyph unicode="&#xe611;" d="M296 256h-8v96c0 52.935-43.065 96-96 96h-64c-52.935 0-96-43.065-96-96v-96h-8c-13.2 0-24-10.8-24-24v-240c0-13.2 10.8-24 24-24h272c13.2 0 24 10.8 24 24v240c0 13.2-10.8 24-24 24zM192 32h-64l13.92 69.6c-8.404 5.766-13.92 15.437-13.92 26.4 0 17.673 14.327 32 32 32 17.673 0 32-14.327 32-32 0-10.963-5.516-20.634-13.92-26.4l13.92-69.6zM224 256h-128v96c0 17.645 14.355 32 32 32h64c17.645 0 32-14.355 32-32v-96z" />
<glyph unicode="&#xe612;" d="M384 448h-64c-52.935 0-96-43.065-96-96v-96h-200c-13.2 0-24-10.8-24-24v-240c0-13.2 10.8-24 24-24h272c13.2 0 24 10.8 24 24v240c0 13.2-10.8 24-24 24h-8v96c0 17.645 14.355 32 32 32h64c17.645 0 32-14.355 32-32v-96h64v96c0 52.935-43.065 96-96 96zM192 32h-64l13.92 69.6c-8.404 5.766-13.92 15.437-13.92 26.4 0 17.673 14.327 32 32 32 17.673 0 32-14.327 32-32 0-10.963-5.516-20.634-13.92-26.4l13.92-69.6z" />
<glyph unicode="&#xe613;" d="M512 175.953v96.094l-73.387 12.231c-2.979 9.066-6.611 17.834-10.847 26.25l43.227 60.517-67.948 67.949-60.413-43.152c-8.455 4.277-17.269 7.944-26.384 10.951l-12.201 73.207h-96.094l-12.201-73.208c-9.115-3.007-17.929-6.674-26.383-10.951l-60.414 43.152-67.949-67.949 43.227-60.518c-4.235-8.415-7.867-17.183-10.846-26.249l-73.387-12.23v-96.094l73.559-12.26c2.98-8.984 6.605-17.674 10.821-26.015l-43.374-60.724 67.949-67.948 60.827 43.447c8.301-4.175 16.945-7.764 25.882-10.717l12.289-73.736h96.094l12.289 73.737c8.937 2.953 17.581 6.542 25.883 10.716l60.826-43.446 67.948 67.948-43.372 60.723c4.216 8.341 7.839 17.031 10.82 26.016l73.559 12.259zM256 160c-35.346 0-64 28.653-64 64 0 35.346 28.654 64 64 64 35.347 0 64-28.654 64-64 0-35.347-28.653-64-64-64z" />
<glyph unicode="&#xe614;" d="M448 352h-96v64c0 17.6-14.4 32-32 32h-128c-17.6 0-32-14.4-32-32v-64h-96c-35.2 0-64-28.8-64-64v-256c0-35.2 28.8-64 64-64h384c35.2 0 64 28.8 64 64v256c0 35.2-28.8 64-64 64zM192 416h128v-64h-128v64zM384 128h-96v-96h-64v96h-96v64h96v96h64v-96h96v-64z" />
<glyph unicode="&#xe615;" d="M400 416h-288c-26.51 0-48-21.49-48-48v-16h384v16c0 26.51-21.49 48-48 48zM316.16 448l7.058-50.5h-134.436l7.057 50.5h120.321zM320 480h-128c-13.2 0-25.495-10.696-27.321-23.769l-9.357-66.962c-1.827-13.073 7.478-23.769 20.678-23.769h160c13.2 0 22.505 10.696 20.679 23.769l-9.357 66.962c-1.827 13.073-14.122 23.769-27.322 23.769v0zM408 320h-304c-17.6 0-30.696-14.341-29.103-31.869l26.206-288.263c1.593-17.527 17.297-31.868 34.897-31.868h240c17.6 0 33.304 14.341 34.897 31.868l26.205 288.263c1.594 17.528-11.502 31.869-29.102 31.869zM192 32h-48l-16 224h64v-224zM288 32h-64v224h64v-224zM368 32h-48v224h64l-16-224z" />
<glyph unicode="&#xe616;" d="M256 480c-141.385 0-256-114.615-256-256s114.615-256 256-256 256 114.615 256 256-114.615 256-256 256zM224 384h64v-64h-64v64zM320 64h-128v32h32v128h-32v32h96v-160h32v-32z" />
<glyph unicode="&#xe617;" d="M256 480c-141.385 0-256-114.615-256-256s114.615-256 256-256 256 114.615 256 256-114.615 256-256 256zM384 306.745l-82.744-82.745 82.744-82.744v-45.256h-45.256l-82.744 82.744-82.745-82.744h-45.255v45.256l82.745 82.744-82.745 82.745v45.255h45.255l82.745-82.745 82.744 82.745h45.256v-45.255z" />
<glyph unicode="&#xe618;" d="M256 480c-141.385 0-256-114.615-256-256s114.615-256 256-256 256 114.615 256 256-114.615 256-256 256zM208 64l-106 138 47 49 59-75 185 151 23-23-208-240z" />
<glyph unicode="&#xe619;" d="M256 480c-141.385 0-256-114.615-256-256s114.615-256 256-256 256 114.615 256 256-114.615 256-256 256zM128 352h256c4.569 0 9.002-0.981 13.072-2.831l-141.072-164.584-141.072 164.585c4.070 1.848 8.503 2.83 13.072 2.83zM96 128v192c0 0.67 0.028 1.336 0.070 2l93.832-109.471-92.799-92.799c-0.722 2.668-1.103 5.443-1.103 8.27zM384 96h-256c-2.827 0-5.601 0.381-8.27 1.104l91.059 91.059 45.211-52.749 45.212 52.747 91.058-91.060c-2.67-0.72-5.443-1.101-8.27-1.101zM416 128c0-2.827-0.381-5.6-1.103-8.27l-92.8 92.799 93.833 109.471c0.042-0.664 0.070-1.33 0.070-2v-192z" />
<glyph unicode="&#xe61a;" d="M0.403 45.168c-0.122 1.266-0.226 2.535-0.292 3.815 0.065-1.28 0.17-2.549 0.292-3.815zM117.954 197.426c46.005-1.369 76.867 46.349 68.931 106.599-7.947 60.24-51.698 108.584-97.704 109.961-46.013 1.365-76.87-44.741-68.926-105 7.941-60.234 51.676-110.187 97.699-111.56zM512 352v42.655c0 46.94-38.391 85.345-85.329 85.345h-341.328c-46.138 0-84.006-37.116-85.282-82.963 29.181 25.693 69.662 47.158 111.437 47.158 44.652 0 178.622 0 178.622 0l-39.974-33.809h-56.634c37.565-14.402 57.578-58.062 57.578-102.861 0-37.624-20.905-69.977-50.444-92.984-28.822-22.451-34.286-31.854-34.286-50.939 0-16.289 30.873-44 47.016-55.394 47.191-33.269 62.458-64.156 62.458-115.728 0-8.214-1.021-16.415-3.033-24.48h153.871c46.937 0 85.328 38.375 85.328 85.345v266.654h-96v-95.999h-32v96h-95.999v32h95.999v96h32v-96h96zM92.943 97.032c10.807 0 20.711 0.295 30.968 0.295-13.573 13.167-24.313 29.3-24.313 49.19 0 11.804 3.782 23.168 9.067 33.26-5.391-0.385-10.895-0.497-16.563-0.497-37.178 0-68.753 12.038-92.102 31.927v-33.621l0.003-100.865c26.72 12.687 58.444 20.311 92.94 20.311zM1.71 36.371c-0.556 2.729-0.983 5.503-1.271 8.317 0.287-2.814 0.715-5.588 1.271-8.317zM227.725 3.577c-7.529 29.403-34.227 43.982-71.444 69.784-13.536 4.366-28.447 6.937-44.447 7.104-44.809 0.482-86.554-17.471-110.108-44.186 7.96-38.853 42.517-68.279 83.617-68.279h143.222c0.908 5.564 1.348 11.316 1.348 17.216 0 6.267-0.767 12.396-2.188 18.361z" />
<glyph unicode="&#xe61b;" d="M426.672 480h-341.33c-46.936 0-85.342-38.407-85.342-85.344v-341.313c0-46.969 38.406-85.343 85.342-85.343l341.33 0.001c46.938 0 85.328 38.373 85.328 85.344v341.311c0 46.937-38.391 85.344-85.328 85.344zM435.296 224h-83.296v-224h-96v224h-46.263v73.282h46.263v47.593c0 64.671 27.896 103.125 103.935 103.125h87.622v-79.285h-71.565c-21.241 0.035-23.876-11.076-23.876-31.756l-0.116-39.677h96l-12.704-73.282z" />
<glyph unicode="&#xe61c;" d="M427 480h-342c-46.75 0-85-38.25-85-85v-342c0-46.75 38.25-85 85-85h342c46.75 0 85 38.25 85 85v342c0 46.75-38.25 85-85 85zM163.9 256h184.2c3.494-10.029 5.4-20.795 5.4-32 0-53.762-43.738-97.5-97.5-97.5-53.762 0-97.5 43.738-97.5 97.5 0 11.205 1.906 21.971 5.4 32zM448 255.975v-191.975c0-17.6-14.4-32-32-32h-320c-17.6 0-32 14.4-32 32v192h50.054c-2.321-10.301-3.554-21.008-3.554-32 0-80.229 65.271-145.5 145.5-145.5 80.229 0 145.5 65.271 145.5 145.5 0 10.992-1.232 21.699-3.554 32l50.054-0.025zM448 368c0-8.8-7.2-16-16-16h-32c-8.8 0-16 7.2-16 16v32c0 8.8 7.2 16 16 16h32c8.8 0 16-7.2 16-16v-32z" />
<glyph unicode="&#xe61d;" d="M512 382.791c-18.838-8.354-39.082-14.001-60.33-16.54 21.686 13 38.343 33.585 46.186 58.115-20.298-12.039-42.778-20.78-66.705-25.49-19.16 20.415-46.461 33.17-76.673 33.17-58.011 0-105.044-47.029-105.044-105.039 0-8.233 0.929-16.25 2.72-23.939-87.3 4.382-164.701 46.2-216.509 109.753-9.042-15.514-14.223-33.558-14.223-52.809 0-36.444 18.544-68.596 46.73-87.433-17.219 0.546-33.416 5.271-47.577 13.139-0.010-0.438-0.010-0.878-0.010-1.321 0-50.894 36.209-93.348 84.261-103-8.813-2.4-18.094-3.686-27.674-3.686-6.769 0-13.349 0.66-19.764 1.886 13.368-41.73 52.16-72.103 98.126-72.948-35.95-28.175-81.243-44.967-130.458-44.967-8.479 0-16.84 0.497-25.058 1.47 46.486-29.805 101.701-47.197 161.021-47.197 193.211 0 298.868 160.062 298.868 298.872 0 4.554-0.103 9.084-0.305 13.59 20.528 14.81 38.336 33.31 52.418 54.374z" />
<glyph unicode="&#xe61e;" d="M440.317 414.613c12.849-6.288 24.047-15.243 32.251-26.241 17.268-23.15 22.118-54.686 14.418-93.733-7.78-39.513-25.208-72.867-50.583-97.022-4.641-4.851-9.611-9.373-14.902-13.54-27.178-21.401-61.499-32.714-99.254-32.714h-120.030l-32.282-151.363h-66.212l5.043 23.15h23.064l32.282 151.363h94.135c90.125 0 165.469 55.539 185.629 149.968 22.861 106.917-53.799 155.519-119.705 155.519h-224.639l-99.532-456.85h76.016l-12.016-55.15h131.83l32.282 151.363h94.135c90.125 0 165.469 55.539 185.629 149.968 16.858 78.84-20.402 125.966-67.559 145.282zM320.131 324.481c-6.862-29.53-32.214-54.020-60.328-60.684l15.369 68.011h46.493c-0.364-2.403-0.861-4.845-1.534-7.327zM211.172 386.959h64.566c18.38 0 33.254-9.002 40.935-23.15h-67.077l-23.008-101.815h-43.656l28.24 124.965z" />
<glyph unicode="&#xe61f;" d="M479.68 370.896c-1.536 25.12-22.192 45.056-47.68 45.056h-48v16.032c0 26.512-21.504 48-48 48h-160c-26.512 0-48-21.488-48-48v-16.016h-48c-25.52 0-46.16-19.936-47.696-45.056h-0.304v-34.928c0-17.664 14.336-32 32-32v0-272c0-35.344 28.656-64 64-64h256c35.344 0 64 28.656 64 64v272c17.664 0 32 14.336 32 32v34.912h-0.32zM160 431.968c0 8.848 7.152 16 16 16h160c8.848 0 16-7.152 16-16v-16h-192v16zM416 31.968c0-17.632-14.368-32-32-32h-256c-17.648 0-32 14.368-32 32v272h320v-272zM448 351.984v-16h-384v31.984c0 8.848 7.152 16 16 16h352c8.848 0 16-7.152 16-16v-15.984zM144 31.904h32c8.848 0 16 7.152 16 16v208c0 8.848-7.152 16-16 16h-32c-8.848 0-16-7.152-16-16v-208c0-8.848 7.152-16 16-16zM144 255.92h32v-208h-32v208zM240 31.904h32c8.848 0 16 7.152 16 16v208c0 8.848-7.152 16-16 16h-32c-8.848 0-16-7.152-16-16v-208c0-8.848 7.152-16 16-16zM240 255.92h32v-208h-32v208zM336 31.904h32c8.848 0 16 7.152 16 16v208c0 8.848-7.152 16-16 16h-32c-8.848 0-16-7.152-16-16v-208c0-8.848 7.152-16 16-16zM336 255.92h32v-208h-32v208z" />
<glyph unicode="&#xe620;" d="M497.76 26.624c-3.216 2.128-61.568 40.4-148.368 59.184 31.84 40.336 52.288 94.592 60.976 130.704 12.064 50.048 7.376 147.968-40.688 208.992-28.096 35.664-67.408 54.496-113.68 54.496-46.272 0-85.584-18.848-113.664-54.496-48.064-61.008-52.736-158.928-40.688-208.976 8.688-36.112 29.12-90.368 60.976-130.704-86.8-18.784-145.152-57.056-148.352-59.184-11.728-7.808-16.976-22.4-12.88-35.872 4.064-13.52 16.528-22.768 30.608-22.768h448c14.096 0 26.528 9.248 30.624 22.752 4.112 13.472-1.136 28.064-12.864 35.872zM324.272 105.632l-5.216-6.624c-38.16-43.84-87.92-43.84-126.064 0l-5.232 6.624c-44.56 56.464-66.672 131.152-57.152 202.4 8.72 68.464 47.952 139.968 125.392 139.968 77.44 0 116.688-71.52 125.408-139.984 9.488-71.28-12.544-145.888-57.136-202.384zM32 0c2.208 1.472 56.416 37.024 137.376 54.528l39.744 8.592c14.192-9.312 29.76-15.12 46.88-15.12 17.136 0 32.688 5.808 46.88 15.12l39.744-8.592c80.32-17.376 134.336-52.528 137.376-54.528h-448z" />
<glyph unicode="&#xe621;" d="M486.256 277.12l-49.024 9.824c-2.464 7.088-5.376 13.968-8.592 20.624l27.776 41.664c8.464 12.688 6.784 29.6-4 40.368l-30.784 30.784c-6.192 6.192-14.368 9.376-22.656 9.376-6.128 0-12.32-1.76-17.712-5.376l-41.664-27.76c-6.688 3.232-13.568 6.112-20.656 8.576l-9.824 49.040c-2.976 14.976-16.128 25.728-31.376 25.728h-43.52c-15.248 0-28.384-10.768-31.376-25.728l-9.824-49.040c-7.088-2.464-13.968-5.36-20.624-8.576l-41.648 27.76c-5.424 3.616-11.6 5.376-17.744 5.376-8.272 0-16.448-3.184-22.64-9.376l-30.768-30.784c-10.784-10.784-12.464-27.68-4-40.368l27.76-41.664c-3.232-6.672-6.112-13.552-8.576-20.64l-49.056-9.808c-14.96-2.992-25.728-16.128-25.728-31.376v-43.52c0-15.248 10.768-28.4 25.728-31.376l49.040-9.84c2.464-7.088 5.36-13.968 8.576-20.624l-27.744-41.664c-8.464-12.688-6.784-29.6 4-40.368l30.784-30.784c6.192-6.192 14.368-9.376 22.64-9.376 6.144 0 12.336 1.776 17.728 5.376l41.664 27.776c6.672-3.248 13.552-6.128 20.64-8.592l9.808-49.024c2.992-14.976 16.128-25.744 31.376-25.744h43.52c15.248 0 28.4 10.784 31.376 25.744l9.84 49.024c7.088 2.464 13.968 5.376 20.624 8.592l41.664-27.776c5.408-3.6 11.6-5.376 17.712-5.376 8.288 0 16.464 3.184 22.656 9.376l30.784 30.784c10.784 10.784 12.464 27.68 4 40.368l-27.776 41.664c3.248 6.688 6.128 13.568 8.592 20.656l49.024 9.808c14.96 2.96 25.744 16.128 25.744 31.376v43.52c0 15.248-10.784 28.384-25.744 31.376zM430.944 192.4c-11.12-2.224-20.224-10.16-23.936-20.88-2.064-5.904-4.464-11.632-7.152-17.184-4.976-10.224-4.128-22.288 2.16-31.712l27.776-41.664-30.784-30.784-41.664 27.776c-5.344 3.568-11.536 5.376-17.744 5.376-4.752 0-9.536-1.056-13.936-3.184-5.568-2.688-11.28-5.12-17.216-7.184-10.688-3.712-18.624-12.816-20.848-23.936l-9.84-49.056h-43.52l-9.808 49.056c-2.224 11.12-10.16 20.224-20.864 23.936-5.904 2.064-11.648 4.464-17.2 7.152-4.416 2.16-9.184 3.216-13.952 3.216-6.224 0-12.4-1.808-17.744-5.376l-41.664-27.776-30.784 30.784 27.76 41.664c6.288 9.44 7.104 21.504 2.192 31.68-2.688 5.568-5.104 11.28-7.168 17.216-3.712 10.688-12.832 18.624-23.936 20.848l-49.040 9.84-0.032 43.536 49.056 9.808c11.104 2.224 20.224 10.16 23.936 20.864 2.064 5.904 4.448 11.648 7.152 17.2 4.96 10.208 4.128 22.272-2.176 31.696l-27.744 41.664 30.768 30.784 41.664-27.76c5.344-3.568 11.536-5.376 17.744-5.376 4.752 0 9.52 1.056 13.936 3.184 5.552 2.688 11.28 5.104 17.2 7.168 10.704 3.712 18.64 12.832 20.864 23.936l9.824 49.040 43.52 0.016 9.808-49.056c2.224-11.104 10.16-20.224 20.88-23.936 5.904-2.064 11.632-4.448 17.184-7.152 4.432-2.144 9.184-3.2 13.968-3.2 6.224 0 12.4 1.808 17.744 5.376l41.664 27.76 30.784-30.784-27.776-41.664c-6.288-9.44-7.088-21.488-2.192-31.68 2.688-5.552 5.12-11.28 7.184-17.2 3.712-10.704 12.816-18.64 23.936-20.864l49.024-9.824 0.048-43.52-49.056-9.824zM256 335.984c-61.84 0-112-50.16-112-112 0-61.856 50.16-112 112-112s112 50.16 112 112c0 61.84-50.16 112-112 112zM256 125.968c-54.112 0-98 43.904-98 98 0 54.112 43.888 98 98 98 54.096 0 98-43.888 98-98 0-54.096-43.904-98-98-98zM256 287.984c-35.36 0-64-28.64-64-64 0-35.344 28.64-64 64-64 35.344 0 64 28.656 64 64 0 35.344-28.656 64-64 64zM256 175.968c-26.496 0-48 21.504-48 48 0 26.496 21.504 48 48 48s48-21.504 48-48c0-26.496-21.504-48-48-48z" />
<glyph unicode="&#xe622;" d="M256 319.984c-70.704 0-128-57.296-128-128 0-70.688 57.296-128 128-128 70.688 0 128 57.312 128 128 0 70.688-57.312 128-128 128zM328.88 129.504c-34.496-40.256-95.088-44.912-135.344-10.4-40.272 34.496-44.912 95.104-10.4 135.344 34.48 40.272 95.088 44.912 135.344 10.4 40.24-34.48 44.896-95.104 10.4-135.344zM256 255.984c4.416 0 8-3.584 8-8s-3.584-8-8-8c-26.512 0-47.984-21.488-48-47.984v-0.032c0-4.4-3.584-8-8-8s-8 3.6-8 8v0.032c0.016 35.328 28.656 63.984 64 63.984zM471.872 335.328l-69.344 11.568-21.968 54.944c-7.344 18.32-24.848 30.16-44.56 30.16h-160c-19.712 0-37.216-11.84-44.576-30.176l-21.952-54.928-69.328-11.568c-23.264-3.856-40.144-23.76-40.144-47.328v-240c0-26.464 21.536-48 48-48h416c26.464 0 48 21.536 48 48v240c0 23.568-16.88 43.472-40.128 47.328zM480 48c0-8.848-7.152-16-16-16h-416c-8.848 0-16 7.152-16 16v240c0 7.824 5.664 14.496 13.376 15.776l87.104 14.512 28.656 71.648c2.448 6.064 8.32 10.064 14.864 10.064h160c6.528 0 12.4-3.984 14.848-10.064l28.656-71.648 87.12-14.512c7.712-1.28 13.376-7.952 13.376-15.776v-240z" />
<glyph unicode="&#xe623;" d="M384 480h-256c-26.528 0-48-21.488-48-48v-416c0-26.528 21.488-48 48-48h256c26.496 0 48 21.504 48 48v416c0 26.528-21.504 48-48 48zM400 16c0-8.816-7.184-16-16-16h-256c-8.832 0-16 7.152-16 16v32.064h288v-32.064zM400 64.064h-288v319.936h288v-319.936zM400 400h-288v32c0 8.832 7.168 16 16 16h256c8.816 0 16-7.168 16-16v-32zM288 424c0-4.416-3.6-8-8-8h-48c-4.432 0-8 3.584-8 8v0c0 4.432 3.568 8 8 8h48c4.4 0 8-3.568 8-8v0zM272 24.064c0-4.4-3.6-8-8-8h-16c-4.416 0-8 3.6-8 8v0c0 4.432 3.584 8 8 8h16c4.4 0 8-3.568 8-8v0z" />
<glyph unicode="&#xe624;" d="M502.4 300.8l-48 63.968c-1.872 2.512-4.096 4.688-6.4 6.768v76.464c0 17.664-14.336 32-32 32h-320c-17.68 0-32-14.336-32-32v-76.48c-2.304-2.064-4.528-4.224-6.4-6.72l-47.984-63.984c-6.208-8.256-9.616-18.48-9.616-28.816v-16c0-26.464 21.536-48 48-48v0-208c0-17.664 14.336-32 32-32h352c17.664 0 32 14.336 32 32v208c26.464 0 48 21.536 48 48v16c0 10.336-3.408 20.56-9.6 28.8zM416 448v-64h-320v64h320zM163.088 240h-67.024l64 112h35.024l-32-112zM211.744 352h36.256v-112h-68.256l32 112zM264 352h36.256l32-112h-68.256v112zM316.88 352h35.024l64-112h-67.024l-32 112zM32 256v16c0 3.472 1.12 6.832 3.2 9.6l48 64c3.024 4.032 7.76 6.4 12.8 6.4h45.632l-64-112h-29.632c-8.832 0-16 7.152-16 16zM320 0h-120v160h120v-160zM432 0h-96v160c0 8.848-7.184 16-16 16h-120c-8.832 0-16-7.152-16-16v-160h-104v208h352v-208zM480 256c0-8.848-7.152-16-16-16h-29.664l-64 112h45.664c5.024 0 9.776-2.368 12.784-6.4l48-64c2.096-2.768 3.216-6.128 3.216-9.6v-16z" />
</font>
</defs>
</svg>
